<svg width="564" height="96" viewBox="0 0 564 96" fill="none" xmlns="http://www.w3.org/2000/svg">
<path d="M53.808 26.24C53.024 26.24 52.344 26.1253 51.768 25.896C51.1973 25.6667 50.728 25.3653 50.36 24.992C49.992 24.6133 49.7173 24.2053 49.536 23.768L50.608 23.144C50.736 23.5067 50.9387 23.8373 51.216 24.136C51.4933 24.4347 51.8507 24.672 52.288 24.848C52.7253 25.024 53.2453 25.112 53.848 25.112C54.472 25.112 55 25.0133 55.432 24.816C55.8693 24.6187 56.2 24.3413 56.424 23.984C56.648 23.6267 56.76 23.2107 56.76 22.736C56.76 22.2133 56.6347 21.808 56.384 21.52C56.1333 21.232 55.7973 21.0293 55.376 20.912C54.9547 20.7893 54.4853 20.72 53.968 20.704C53.5787 20.688 53.3013 20.6773 53.136 20.672C52.9707 20.6667 52.8613 20.664 52.808 20.664C52.7547 20.664 52.704 20.664 52.656 20.664V19.528C52.6933 19.528 52.792 19.528 52.952 19.528C53.112 19.528 53.2827 19.528 53.464 19.528C53.6453 19.5227 53.7893 19.5173 53.896 19.512C54.6587 19.4747 55.2587 19.2747 55.696 18.912C56.1333 18.5493 56.352 18.0587 56.352 17.44C56.352 16.784 56.12 16.2747 55.656 15.912C55.1973 15.5493 54.6027 15.368 53.872 15.368C53.184 15.368 52.6027 15.5333 52.128 15.864C51.6587 16.1893 51.2747 16.6267 50.976 17.176L50.016 16.464C50.3787 15.8133 50.8907 15.28 51.552 14.864C52.2133 14.448 52.9973 14.24 53.904 14.24C54.3893 14.24 54.8533 14.3067 55.296 14.44C55.744 14.5733 56.1387 14.7707 56.48 15.032C56.8267 15.2933 57.0987 15.624 57.296 16.024C57.4987 16.4187 57.6 16.8827 57.6 17.416C57.6 18.04 57.4613 18.584 57.184 19.048C56.912 19.512 56.56 19.8613 56.128 20.096C56.7147 20.272 57.1733 20.5813 57.504 21.024C57.84 21.4667 58.008 22.0453 58.008 22.76C58.008 23.464 57.8347 24.0773 57.488 24.6C57.1413 25.1227 56.6507 25.528 56.016 25.816C55.3867 26.0987 54.6507 26.24 53.808 26.24ZM59.1309 27.92V24.872C59.5789 24.872 59.9389 24.76 60.2109 24.536C60.4829 24.3067 60.6909 24.0027 60.8349 23.624C60.9789 23.2453 61.0882 22.8213 61.1629 22.352C61.2375 21.8773 61.3015 21.3973 61.3549 20.912C61.4295 20.2027 61.4882 19.5173 61.5309 18.856C61.5789 18.1947 61.6189 17.5093 61.6509 16.8C61.6882 16.0907 61.7309 15.3147 61.7789 14.472L68.8829 14.48V24.872H69.7069V27.92H68.5389V26H60.3069V27.92H59.1309ZM61.3789 24.872H67.7069V15.608L62.8749 15.6C62.8429 16.2507 62.8109 16.88 62.7789 17.488C62.7469 18.096 62.7095 18.7093 62.6669 19.328C62.6242 19.9467 62.5682 20.592 62.4989 21.264C62.4402 21.8773 62.3709 22.4133 62.2909 22.872C62.2109 23.3307 62.0989 23.7227 61.9549 24.048C61.8162 24.3733 61.6242 24.648 61.3789 24.872ZM71.4638 26V14.48H78.6638V15.608H72.6398V19.592H77.7038V20.72H72.6398V24.872H78.6638V26H71.4638ZM84.7684 26.24C83.6217 26.24 82.6537 25.9867 81.8644 25.48C81.075 24.968 80.4777 24.2613 80.0724 23.36C79.667 22.4587 79.4644 21.4187 79.4644 20.24C79.4644 19.0613 79.667 18.0213 80.0724 17.12C80.4777 16.2187 81.075 15.5147 81.8644 15.008C82.6537 14.496 83.6217 14.24 84.7684 14.24C86.107 14.24 87.2004 14.584 88.0484 15.272C88.8964 15.9547 89.4777 16.872 89.7924 18.024L88.5924 18.336C88.347 17.424 87.907 16.7013 87.2724 16.168C86.6377 15.6347 85.803 15.368 84.7684 15.368C83.867 15.368 83.1177 15.5733 82.5204 15.984C81.923 16.3947 81.4724 16.968 81.1684 17.704C80.8697 18.4347 80.715 19.28 80.7044 20.24C80.699 21.2 80.8457 22.0453 81.1444 22.776C81.4484 23.5067 81.9017 24.08 82.5044 24.496C83.1124 24.9067 83.867 25.112 84.7684 25.112C85.803 25.112 86.6377 24.8453 87.2724 24.312C87.907 23.7733 88.347 23.0507 88.5924 22.144L89.7924 22.456C89.4777 23.608 88.8964 24.528 88.0484 25.216C87.2004 25.8987 86.107 26.24 84.7684 26.24ZM91.5495 26V14.48H92.7255V18.856H95.9975C96.1095 18.856 96.2348 18.8613 96.3735 18.872C96.5175 18.8773 96.6642 18.8933 96.8135 18.92C97.4108 19.0107 97.9175 19.2213 98.3335 19.552C98.7548 19.8773 99.0722 20.288 99.2855 20.784C99.5042 21.28 99.6135 21.8267 99.6135 22.424C99.6135 23.0267 99.5042 23.576 99.2855 24.072C99.0722 24.568 98.7548 24.9813 98.3335 25.312C97.9175 25.6373 97.4108 25.8453 96.8135 25.936C96.6642 25.9573 96.5175 25.9733 96.3735 25.984C96.2348 25.9947 96.1095 26 95.9975 26H91.5495ZM92.7255 24.872H95.9655C96.0668 24.872 96.1815 24.8667 96.3095 24.856C96.4375 24.8453 96.5628 24.8293 96.6855 24.808C97.0748 24.7227 97.3975 24.56 97.6535 24.32C97.9095 24.08 98.0988 23.7947 98.2215 23.464C98.3442 23.128 98.4055 22.7813 98.4055 22.424C98.4055 22.0667 98.3442 21.7227 98.2215 21.392C98.0988 21.0613 97.9095 20.776 97.6535 20.536C97.3975 20.296 97.0748 20.1333 96.6855 20.048C96.5628 20.0213 96.4375 20.0027 96.3095 19.992C96.1815 19.9813 96.0668 19.976 95.9655 19.976H92.7255V24.872ZM104.573 26V14.48H105.653L110.181 24.168L114.685 14.48H115.781V25.992H114.661V17.104L110.557 26H109.797L105.701 17.104V26H104.573ZM122.69 26.24C121.544 26.24 120.576 25.9867 119.786 25.48C118.997 24.968 118.4 24.2613 117.994 23.36C117.589 22.4587 117.386 21.4187 117.386 20.24C117.386 19.0613 117.589 18.0213 117.994 17.12C118.4 16.2187 118.997 15.5147 119.786 15.008C120.576 14.496 121.544 14.24 122.69 14.24C123.842 14.24 124.81 14.496 125.594 15.008C126.384 15.5147 126.981 16.2187 127.386 17.12C127.797 18.0213 128.002 19.0613 128.002 20.24C128.002 21.4187 127.797 22.4587 127.386 23.36C126.981 24.2613 126.384 24.968 125.594 25.48C124.81 25.9867 123.842 26.24 122.69 26.24ZM122.69 25.112C123.592 25.112 124.344 24.9067 124.946 24.496C125.549 24.0853 126 23.5147 126.298 22.784C126.602 22.048 126.754 21.2 126.754 20.24C126.754 19.28 126.602 18.4347 126.298 17.704C126 16.9733 125.549 16.4027 124.946 15.992C124.344 15.5813 123.592 15.3733 122.69 15.368C121.789 15.368 121.04 15.5733 120.442 15.984C119.845 16.3947 119.394 16.968 119.09 17.704C118.792 18.4347 118.64 19.28 118.634 20.24C118.629 21.2 118.776 22.0453 119.074 22.776C119.378 23.5013 119.832 24.072 120.434 24.488C121.037 24.8987 121.789 25.1067 122.69 25.112ZM127.848 26L132.952 20.04L128.288 14.48H129.768L134.224 19.864V14.48H135.4V19.864L139.856 14.48H141.336L136.672 20.04L141.776 26H140.272L135.4 20.296V26H134.224V20.296L129.36 26H127.848ZM143.058 26V14.48H144.234V19.672H150.602V14.48H151.77V26H150.602V20.8H144.234V26H143.058ZM158.675 26.24C157.528 26.24 156.56 25.9867 155.771 25.48C154.981 24.968 154.384 24.2613 153.979 23.36C153.573 22.4587 153.371 21.4187 153.371 20.24C153.371 19.0613 153.573 18.0213 153.979 17.12C154.384 16.2187 154.981 15.5147 155.771 15.008C156.56 14.496 157.528 14.24 158.675 14.24C159.827 14.24 160.795 14.496 161.579 15.008C162.368 15.5147 162.965 16.2187 163.371 17.12C163.781 18.0213 163.987 19.0613 163.987 20.24C163.987 21.4187 163.781 22.4587 163.371 23.36C162.965 24.2613 162.368 24.968 161.579 25.48C160.795 25.9867 159.827 26.24 158.675 26.24ZM158.675 25.112C159.576 25.112 160.328 24.9067 160.931 24.496C161.533 24.0853 161.984 23.5147 162.283 22.784C162.587 22.048 162.739 21.2 162.739 20.24C162.739 19.28 162.587 18.4347 162.283 17.704C161.984 16.9733 161.533 16.4027 160.931 15.992C160.328 15.5813 159.576 15.3733 158.675 15.368C157.773 15.368 157.024 15.5733 156.427 15.984C155.829 16.3947 155.379 16.968 155.075 17.704C154.776 18.4347 154.624 19.28 154.619 20.24C154.613 21.2 154.76 22.0453 155.059 22.776C155.363 23.5013 155.816 24.072 156.419 24.488C157.021 24.8987 157.773 25.1067 158.675 25.112ZM173.456 26.24C172.309 26.24 171.341 25.9867 170.552 25.48C169.763 24.968 169.165 24.2613 168.76 23.36C168.355 22.4587 168.152 21.4187 168.152 20.24C168.152 19.0613 168.355 18.0213 168.76 17.12C169.165 16.2187 169.763 15.5147 170.552 15.008C171.341 14.496 172.309 14.24 173.456 14.24C174.608 14.24 175.576 14.496 176.36 15.008C177.149 15.5147 177.747 16.2187 178.152 17.12C178.563 18.0213 178.768 19.0613 178.768 20.24C178.768 21.4187 178.563 22.4587 178.152 23.36C177.747 24.2613 177.149 24.968 176.36 25.48C175.576 25.9867 174.608 26.24 173.456 26.24ZM173.456 25.112C174.357 25.112 175.109 24.9067 175.712 24.496C176.315 24.0853 176.765 23.5147 177.064 22.784C177.368 22.048 177.52 21.2 177.52 20.24C177.52 19.28 177.368 18.4347 177.064 17.704C176.765 16.9733 176.315 16.4027 175.712 15.992C175.109 15.5813 174.357 15.3733 173.456 15.368C172.555 15.368 171.805 15.5733 171.208 15.984C170.611 16.3947 170.16 16.968 169.856 17.704C169.557 18.4347 169.405 19.28 169.4 20.24C169.395 21.2 169.541 22.0453 169.84 22.776C170.144 23.5013 170.597 24.072 171.2 24.488C171.803 24.8987 172.555 25.1067 173.456 25.112ZM179.522 27.92V24.872C179.97 24.872 180.33 24.76 180.602 24.536C180.874 24.3067 181.082 24.0027 181.226 23.624C181.37 23.2453 181.479 22.8213 181.554 22.352C181.628 21.8773 181.692 21.3973 181.746 20.912C181.82 20.2027 181.879 19.5173 181.922 18.856C181.97 18.1947 182.01 17.5093 182.042 16.8C182.079 16.0907 182.122 15.3147 182.17 14.472L189.274 14.48V24.872H190.098V27.92H188.93V26H180.698V27.92H179.522ZM181.77 24.872H188.098V15.608L183.266 15.6C183.234 16.2507 183.202 16.88 183.17 17.488C183.138 18.096 183.1 18.7093 183.058 19.328C183.015 19.9467 182.959 20.592 182.89 21.264C182.831 21.8773 182.762 22.4133 182.682 22.872C182.602 23.3307 182.49 23.7227 182.346 24.048C182.207 24.3733 182.015 24.648 181.77 24.872ZM191.854 26V14.48H193.03V19.672H199.398V14.48H200.566V26H199.398V20.8H193.03V26H191.854ZM211.52 26H210.336V16.552L203.992 26H202.808V14.48H203.992V23.92L210.336 14.48H211.52V26ZM213.761 26V14.48H214.841L219.369 24.168L223.873 14.48H224.969V25.992H223.849V17.104L219.745 26H218.985L214.889 17.104V26H213.761ZM230.417 26V14.48H237.529V15.608H231.593V18.96H234.865C234.977 18.96 235.102 18.9653 235.241 18.976C235.385 18.9813 235.529 18.9947 235.673 19.016C236.265 19.096 236.769 19.2987 237.185 19.624C237.606 19.9493 237.926 20.36 238.145 20.856C238.369 21.352 238.481 21.8933 238.481 22.48C238.481 23.0667 238.369 23.608 238.145 24.104C237.926 24.6 237.606 25.0107 237.185 25.336C236.769 25.6613 236.265 25.864 235.673 25.944C235.529 25.96 235.385 25.9733 235.241 25.984C235.102 25.9947 234.977 26 234.865 26H230.417ZM231.593 24.872H234.833C234.929 24.872 235.041 24.8667 235.169 24.856C235.297 24.8453 235.422 24.8293 235.545 24.808C236.137 24.6907 236.572 24.408 236.849 23.96C237.132 23.5067 237.273 23.0133 237.273 22.48C237.273 21.9413 237.132 21.448 236.849 21C236.572 20.552 236.137 20.2693 235.545 20.152C235.422 20.1253 235.297 20.1093 235.169 20.104C235.041 20.0933 234.929 20.088 234.833 20.088H231.593V24.872ZM238.961 26V24.952C239.254 24.9787 239.497 24.968 239.689 24.92C239.881 24.8667 240.035 24.7493 240.153 24.568C240.275 24.3867 240.382 24.1173 240.473 23.76C240.563 23.3973 240.654 22.9253 240.745 22.344C240.846 21.7147 240.931 21.088 241.001 20.464C241.075 19.84 241.139 19.208 241.193 18.568C241.251 17.9227 241.299 17.2613 241.337 16.584C241.374 15.9067 241.409 15.2053 241.441 14.48H248.713V26H247.537V15.608H242.577C242.539 16.1573 242.502 16.72 242.465 17.296C242.433 17.872 242.39 18.4613 242.337 19.064C242.289 19.6667 242.227 20.288 242.153 20.928C242.083 21.5627 241.995 22.2187 241.889 22.896C241.803 23.408 241.702 23.8827 241.585 24.32C241.473 24.7573 241.313 25.1253 241.105 25.424C240.902 25.7227 240.627 25.928 240.281 26.04C239.939 26.152 239.499 26.1387 238.961 26ZM255.612 26.24C254.465 26.24 253.497 25.9867 252.708 25.48C251.919 24.968 251.321 24.2613 250.916 23.36C250.511 22.4587 250.308 21.4187 250.308 20.24C250.308 19.0613 250.511 18.0213 250.916 17.12C251.321 16.2187 251.919 15.5147 252.708 15.008C253.497 14.496 254.465 14.24 255.612 14.24C256.764 14.24 257.732 14.496 258.516 15.008C259.305 15.5147 259.903 16.2187 260.308 17.12C260.719 18.0213 260.924 19.0613 260.924 20.24C260.924 21.4187 260.719 22.4587 260.308 23.36C259.903 24.2613 259.305 24.968 258.516 25.48C257.732 25.9867 256.764 26.24 255.612 26.24ZM255.612 25.112C256.513 25.112 257.265 24.9067 257.868 24.496C258.471 24.0853 258.921 23.5147 259.22 22.784C259.524 22.048 259.676 21.2 259.676 20.24C259.676 19.28 259.524 18.4347 259.22 17.704C258.921 16.9733 258.471 16.4027 257.868 15.992C257.265 15.5813 256.513 15.3733 255.612 15.368C254.711 15.368 253.961 15.5733 253.364 15.984C252.767 16.3947 252.316 16.968 252.012 17.704C251.713 18.4347 251.561 19.28 251.556 20.24C251.551 21.2 251.697 22.0453 251.996 22.776C252.3 23.5013 252.753 24.072 253.356 24.488C253.959 24.8987 254.711 25.1067 255.612 25.112ZM262.526 26V14.48H263.702V19.92L268.958 14.48H270.462L265.094 20.04L270.902 26H269.366L263.702 20.24V26H262.526ZM276.159 26.24C275.012 26.24 274.044 25.9867 273.255 25.48C272.466 24.968 271.868 24.2613 271.463 23.36C271.058 22.4587 270.855 21.4187 270.855 20.24C270.855 19.0613 271.058 18.0213 271.463 17.12C271.868 16.2187 272.466 15.5147 273.255 15.008C274.044 14.496 275.012 14.24 276.159 14.24C277.311 14.24 278.279 14.496 279.063 15.008C279.852 15.5147 280.45 16.2187 280.855 17.12C281.266 18.0213 281.471 19.0613 281.471 20.24C281.471 21.4187 281.266 22.4587 280.855 23.36C280.45 24.2613 279.852 24.968 279.063 25.48C278.279 25.9867 277.311 26.24 276.159 26.24ZM276.159 25.112C277.06 25.112 277.812 24.9067 278.415 24.496C279.018 24.0853 279.468 23.5147 279.767 22.784C280.071 22.048 280.223 21.2 280.223 20.24C280.223 19.28 280.071 18.4347 279.767 17.704C279.468 16.9733 279.018 16.4027 278.415 15.992C277.812 15.5813 277.06 15.3733 276.159 15.368C275.258 15.368 274.508 15.5733 273.911 15.984C273.314 16.3947 272.863 16.968 272.559 17.704C272.26 18.4347 272.108 19.28 272.103 20.24C272.098 21.2 272.244 22.0453 272.543 22.776C272.847 23.5013 273.3 24.072 273.903 24.488C274.506 24.8987 275.258 25.1067 276.159 25.112ZM283.073 26V14.48H284.153L288.681 24.168L293.185 14.48H294.281V25.992H293.161V17.104L289.057 26H288.297L284.201 17.104V26H283.073Z" fill="black"/>
<path d="M36.1684 58.5962C26.575 70.5152 18.2155 82.4849 6.40869 92.3239" stroke="black" stroke-width="3" stroke-linecap="round"/>
<path d="M2.44067 66.5322V94.308" stroke="black" stroke-width="3" stroke-linecap="round"/>
<path d="M8.39258 94.3079H67.912" stroke="black" stroke-width="3" stroke-linecap="round"/>
<path d="M44.1042 38.7563C66.8991 38.7563 89.0382 35.2054 111.56 34.7883C134.71 34.3596 156.328 36.7463 179.125 38.6461C202.186 40.5678 224.522 39.0848 247.462 42.614C260.392 44.6032 275.007 42.7242 288.134 42.7242" stroke="black" stroke-width="3" stroke-linecap="round"/>
</svg>
