<svg width="88" height="16" viewBox="0 0 88 16" fill="none" xmlns="http://www.w3.org/2000/svg">
<g clip-path="url(#clip0_535_235)">
<path d="M16 8C16 3.58172 12.4183 0 8 0C3.58172 0 0 3.58172 0 8C0 11.993 2.92547 15.3027 6.75 15.9028V10.3125H4.71875V8H6.75V6.2375C6.75 4.2325 7.94438 3.125 9.77172 3.125C10.6467 3.125 11.5625 3.28125 11.5625 3.28125V5.25H10.5538C9.56 5.25 9.25 5.86672 9.25 6.5V8H11.4688L11.1141 10.3125H9.25V15.9028C13.0745 15.3027 16 11.993 16 8Z" fill="#161722"/>
</g>
<g clip-path="url(#clip1_535_235)">
<path d="M41.0334 14.5001C47.0697 14.5001 50.3722 9.49789 50.3722 5.16133C50.3722 5.02071 50.3691 4.87696 50.3628 4.73633C51.0052 4.27173 51.5597 3.69626 52 3.03696C51.4017 3.30316 50.7664 3.47701 50.1159 3.55258C50.8009 3.14203 51.3137 2.49707 51.5594 1.73727C50.915 2.11913 50.2104 2.3885 49.4756 2.53383C48.9806 2.0078 48.326 1.6595 47.6131 1.54279C46.9003 1.42608 46.1688 1.54746 45.5318 1.88816C44.8949 2.22885 44.3879 2.7699 44.0892 3.42763C43.7906 4.08537 43.717 4.82317 43.8797 5.52696C42.575 5.46149 41.2986 5.12256 40.1333 4.53216C38.968 3.94175 37.9398 3.11305 37.1153 2.09977C36.6963 2.82225 36.568 3.67719 36.7567 4.49082C36.9453 5.30445 37.4367 6.01572 38.1309 6.48008C37.6098 6.46354 37.1 6.32321 36.6438 6.07071V6.11133C36.6433 6.86952 36.9054 7.60448 37.3855 8.19127C37.8657 8.77806 38.5342 9.18047 39.2775 9.33008C38.7947 9.46218 38.288 9.48142 37.7966 9.38633C38.0063 10.0384 38.4144 10.6087 38.9638 11.0176C39.5133 11.4266 40.1767 11.6538 40.8616 11.6676C39.6989 12.5808 38.2628 13.0762 36.7844 13.0738C36.5222 13.0734 36.2603 13.0574 36 13.0257C37.5019 13.9893 39.249 14.501 41.0334 14.5001Z" fill="#161722"/>
</g>
<g clip-path="url(#clip2_535_235)">
<path d="M86.8156 0H73.1812C72.5281 0 72 0.515625 72 1.15313V14.8438C72 15.4813 72.5281 16 73.1812 16H86.8156C87.4688 16 88 15.4813 88 14.8469V1.15313C88 0.515625 87.4688 0 86.8156 0ZM76.7469 13.6344H74.3719V5.99687H76.7469V13.6344ZM75.5594 4.95625C74.7969 4.95625 74.1813 4.34062 74.1813 3.58125C74.1813 2.82188 74.7969 2.20625 75.5594 2.20625C76.3188 2.20625 76.9344 2.82188 76.9344 3.58125C76.9344 4.3375 76.3188 4.95625 75.5594 4.95625ZM85.6344 13.6344H83.2625V9.92188C83.2625 9.0375 83.2469 7.89687 82.0281 7.89687C80.7937 7.89687 80.6062 8.8625 80.6062 9.85938V13.6344H78.2375V5.99687H80.5125V7.04063H80.5437C80.8594 6.44063 81.6344 5.80625 82.7875 5.80625C85.1906 5.80625 85.6344 7.3875 85.6344 9.44375V13.6344Z" fill="#161722"/>
</g>
<defs>
<clipPath id="clip0_535_235">
<rect width="16" height="16" fill="white"/>
</clipPath>
<clipPath id="clip1_535_235">
<rect width="16" height="16" fill="white" transform="translate(36)"/>
</clipPath>
<clipPath id="clip2_535_235">
<rect width="16" height="16" fill="white" transform="translate(72)"/>
</clipPath>
</defs>
</svg>
